<svg xmlns="http://www.w3.org/2000/svg" viewBox="0 0 100 100" fill="none">
  <path fill="#5E6AD2" d="M1.22541 61.5228c-.2225-.9485.6451-1.8159 1.59366-1.5933l54.79533 13.8824c1.3576.3439 1.6102 2.1353.4394 3.1069L33.0862 98.8566c-.8153.6764-1.9786.6164-2.7204-.1254L1.22541 61.5228Zm6.75594-9.3591c-.51898-1.088.30298-2.3422 1.50152-2.2899l66.95983 2.9205c1.5231.0665 2.1389 2.0128 1.0152 3.2102L37.0569 99.5816c-.7836.8352-2.0997.7918-2.8285-.0931L8.03935 52.1637l-.0579.0001Zm8.48825-13.8395c-.7428-1.1325.0092-2.6406 1.3363-2.6805l69.88 1.9816c1.656.0492 2.3285 2.1544 1.0814 3.3854L31.0559 99.9939c-.8673.8565-2.2776.8093-3.0863-.1037L14.5249 38.3252l-.0014-.0001ZM23.4715 21.4284c-.8655-1.2032-.1172-2.8582 1.328-2.9375L95.68 14.1932c1.764-.0968 2.6042 2.1158 1.2936 3.4068L30.6069 99.4298c-.9121.8982-2.3744.8269-3.1918-.1559L23.4715 21.4284ZM34.8732 5.88826c-.8916-1.29949-.0274-3.06547 1.5124-3.09341L96.3666.00034c1.7588-.03186 2.7135 2.0511 1.489 3.25207L30.8469 99.8287c-.8493.8333-2.2106.811-3.0344-.0496L34.8732 5.88826Z"/>
</svg>
